<?xml version="1.0" encoding="UTF-8" standalone="no"?>
<!-- Created with Inkscape (http://www.inkscape.org/) -->

<svg
   width="67.73333mm"
   height="67.73333mm"
   viewBox="0 0 67.73333 67.73333"
   version="1.1"
   id="svg1"
   xml:space="preserve"
   xmlns:xlink="http://www.w3.org/1999/xlink"
   xmlns="http://www.w3.org/2000/svg"
   xmlns:svg="http://www.w3.org/2000/svg"><defs
     id="defs1"><linearGradient
       id="linearGradient2"><stop
         style="stop-color:#008000;stop-opacity:1;"
         offset="0"
         id="stop3" /><stop
         style="stop-color:#005500;stop-opacity:1;"
         offset="1"
         id="stop2" /></linearGradient><linearGradient
       xlink:href="#linearGradient2"
       id="linearGradient3"
       x1="249.45818"
       y1="270.90784"
       x2="409.26031"
       y2="282.31351"
       gradientUnits="userSpaceOnUse"
       gradientTransform="matrix(0.31758771,0,0,0.31758771,-78.351804,-26.761752)" /><filter
       style="color-interpolation-filters:sRGB"
       id="filter12"
       x="-0.12985889"
       y="-0.11829661"
       width="1.2436155"
       height="1.220182"><feFlood
         result="flood"
         in="SourceGraphic"
         flood-opacity="1.000000"
         flood-color="rgb(0,0,0)"
         id="feFlood11" /><feGaussianBlur
         result="blur"
         in="SourceGraphic"
         stdDeviation="5.000000"
         id="feGaussianBlur11" /><feOffset
         result="offset"
         in="blur"
         dx="-2"
         dy="-2"
         id="feOffset11" /><feComposite
         result="comp1"
         operator="in"
         in="flood"
         in2="offset"
         id="feComposite11" /><feComposite
         result="comp2"
         operator="over"
         in="SourceGraphic"
         in2="comp1"
         id="feComposite12" /></filter></defs><g
     id="layer1"><rect
       style="fill:#008000;stroke:none;stroke-width:2.765;stroke-dasharray:none;paint-order:stroke fill markers"
       id="rect34"
       width="52.70668"
       height="53.602962"
       x="0.97599477"
       y="1.1365612"
       ry="5.9810987" /><path
       id="path34"
       style="fill:#005500;stroke:none;stroke-width:2.765;stroke-dasharray:none;paint-order:stroke fill markers"
       d="M 6.8541444,1.1365616 H 10.224906 V 54.739532 H 6.8541444 c -3.3135294,0 -5.98109751,2.555371 -5.98109751,5.446767 V 7.1176624 c 0,-3.3135303 2.66756811,-5.9811008 5.98109751,-5.9811008 z" /><path
       id="path32"
       style="vector-effect:non-scaling-stroke;fill:url(#linearGradient3);stroke:none;stroke-width:0.264583;stroke-opacity:1;-inkscape-stroke:hairline;paint-order:stroke fill markers"
       d="m 7.6992071,52.944447 c -3.7699754,2.3e-5 -6.82614081,3.056184 -6.82616021,6.826165 1.94e-5,3.769973 3.05618481,6.826141 6.82616021,6.826157 H 47.924858 c 2.043063,2.3e-5 3.699321,-1.656162 3.699386,-3.699216 l -0.02525,-9.093496 c 0,0 -1.11773,0.403699 -1.815144,0.687488 v 8.406008 c -8e-6,1.026672 -0.83229,1.858946 -1.858962,1.858962 H 44.771358 7.6992314 c -2.7535866,-6.5e-5 -4.9857715,-2.232321 -4.9857425,-4.985903 -2.9e-5,-2.753589 2.2321559,-4.985846 4.9857425,-4.98591 H 48.494534 c 1.558384,-0.01125 4.272641,-1.055757 4.269402,-2.83097 0,0 -0.422964,0.779958 -1.475791,0.990715 -1.438595,0.05359 -6.873253,0 -6.873253,0 z" /><text
       xml:space="preserve"
       style="font-weight:bold;font-size:42.2351px;line-height:1.25;font-family:'Helvetica Neue LT Std';-inkscape-font-specification:'Helvetica Neue LT Std, Bold';font-variant-ligatures:none;text-decoration-color:#000000;letter-spacing:0px;word-spacing:0px;text-orientation:upright;fill:#dcffd8;fill-opacity:1;stroke-width:0.264583;-inkscape-stroke:none;stop-color:#000000"
       x="15.820047"
       y="43.415493"
       id="text4"><tspan
         id="tspan4"
         style="fill:#dcffd8;fill-opacity:1;stroke-width:0.264583"
         x="15.820047"
         y="43.415493">D</tspan></text><path
       d="m 198.42094,211.56315 1.5598,1.01726 q -6.51047,7.45991 -12.74966,12.13931 -6.2392,4.6794 -13.76693,4.6794 -2.37361,0 -4.74722,-0.4069 -2.37361,-0.40691 -6.03575,-1.62762 -3.59432,-1.22071 -8.40935,-3.5265 -8.34154,-3.93341 -22.92228,-11.39332 -0.13563,-0.13564 -1.62762,-0.88163 -5.76447,-1.76325 -8.40935,-2.71269 -2.57706,-1.01727 -6.78174,-3.39087 -4.20468,-2.44143 -8.47717,-6.37484 -4.20468,-3.93341 -7.866824,-9.29098 -2.84833,-4.13686 -4.95067,-9.08753 -2.10234,-5.01848 -3.18741,-10.30824 -1.08508,-5.35757 -1.08508,-10.30824 0,-14.85201 7.39209,-26.9235 7.392104,-12.13931 19.531414,-18.85324 12.20713,-6.78173 26.17751,-6.78173 10.71514,0 20.34521,4.06904 9.69789,4.06904 16.88653,11.39332 7.25646,7.25646 11.25769,16.88653 4.00122,9.56225 4.00122,20.34521 0,10.57951 -4.27249,20.6843 -4.20468,10.10479 -12.27495,17.76816 -3.66214,3.45868 -6.71392,5.56102 -3.05178,2.10234 -5.96793,3.45869 -2.84833,1.35635 -5.96793,2.37361 -3.1196,0.94944 -6.03575,1.62762 v 0.33908 q 0.40691,0 2.91615,1.35635 9.01971,5.15412 13.15657,6.2392 4.13686,1.15289 9.01972,1.15289 6.03574,0 9.7657,-1.89888 3.79777,-1.89889 9.42661,-6.71392 0.13564,0 0.40691,-0.33909 0.33909,-0.27127 0.4069,-0.27127 z m -15.80145,-50.65958 q 0,-14.91983 -4.06904,-24.88898 -4.06904,-10.03698 -10.37606,-15.53018 -6.2392,-5.49321 -13.02094,-7.66337 -6.78173,-2.17015 -13.22439,-2.17015 -6.6461,0 -13.56347,2.23797 -6.84956,2.23797 -13.22439,7.86682 -6.30702,5.62884 -10.24043,15.39454 -3.93341,9.69789 -3.93341,23.66827 0,13.63129 3.59433,23.53263 3.59432,9.83352 9.83352,15.86927 3.9334,3.72995 8.54499,6.10356 4.61158,2.37361 9.56225,3.45869 5.01848,1.01726 9.83352,1.01726 8.61281,0 16.07272,-3.18742 7.52773,-3.18742 12.68185,-9.15534 11.52895,-13.42785 11.52895,-36.55357 z"
       id="text3"
       style="font-size:138.89px;line-height:1.25;font-family:'Perpetua Titling MT';-inkscape-font-specification:'Perpetua Titling MT';font-variant-ligatures:none;letter-spacing:0px;word-spacing:0px;text-orientation:upright;fill:#fdfeb0;stroke:#000000;stroke-width:0.833103;stroke-dasharray:none;filter:url(#filter12)"
       aria-label="Q"
       transform="matrix(0.3175877,0,0,0.3175877,-1.266175,-11.673525)" /></g></svg>
